<?xml version="1.0" encoding="UTF-8"?>
<svg version="1.1" viewBox="0 0 2048 2048" width="512" height="512" xmlns="http://www.w3.org/2000/svg">
<path transform="translate(1057)" d="m0 0h24l18 6 12 7 13 12 9 14 5 13 2 11v12l-3 17-6 26-4 26-1 16v17l3 31 6 27 8 24 9 20 11 21 14 21 13 17 13 15 9 9 7 8 13 12 9 7 34 10 28 11 23 11 22 13 12 8 15 11 16 13 5 4 7 10 2 6v12l-5 12-2 4 12 13 11 14 12 16 12 18 5-1 3-1h14l10 4 8 8 7 12 13 28 13 32 13 38 12 44 5 22v4l6-3 12-11h2l2-4 9-10 8-10 10-10 13-8 15-5 6-1h18l14 3 16 8 9 7 9 9 14 20 13 20 14 23 15 27 10 19 14 32 10 28 7 24 6 28 3 24v47l-4 34-6 28-7 24-9 24-11 24-11 20-16 24-9 12-13 16-11 12-13 13-1 2 6-1h26l50 1 22 3 22 6 16 6 20 10 18 12 11 9 13 12 10 11 12 16 12 21 9 21 6 20 3 15 2 20v429l-3 25-5 20-8 22-12 23-12 17-11 13-14 14-14 11-17 11-17 9-21 8-28 7-10 2h-1507l-31-7-17-5-18-8-18-10-14-10-14-12-14-14-11-14-11-17-8-15-8-21-4-13-4-22-1-8v-442l4-25 6-21 8-19 7-14 10-15 10-13 14-15 11-10 18-13 19-11 16-7 18-6 18-4 17-2 43-1 6 1-16-26-16-29-13-28-11-28-7-21-8-32-5-29-3-33v-29l2-26 4-28 6-26 10-30 8-18 8-16 10-18 14-21 10-14 11-14 11-13 13-16 10-11 9-11 11-12 7-8 24-28 14-17 13-16 8-11 14-19 17-26 15-24 12-13 10-7 14-6 9-2h23l12 3 10 4 13 9 9 9 7 11 6 14 9 26 10 21 9 13 11 12 12 9 14 7 17 4h25l17-4 15-6 14-8 10-8 7-6 9-11 7-10 7-12 10-25 6-21 5-28 2-20 1-19v-29l-2-35-5-43-5-40-1-12v-50l3-28 6-31 7-25 9-25 9-20 10-19 12-19 10-14 9-11 11-13 9-10 13-13 11-9 14-12 17-12 17-11 16-9 21-11 21-9z" fill="#010101"/>
<path transform="translate(1066,60)" d="m0 0h6l7 5 1 6-8 35-4 27-1 13v43l2 20 4 24 7 27 9 25 11 24 9 17 15 24 9 12 13 17 13 15 5 6 5 4-1 4-8 10-8 16-4 18v12l5 23 9 39 6 33 3 21 3 36v36l-3 27-5 22-6 18-8 16-8 12-11 12-9 8-14 8-13 5-11 1-14-3-12-6-10-9-8-11-8-12-9-10-14-9-13-5-12-2h-15l-14 3-12 5-15 10-31 8-19 7-17 8-18 11-12 9-10 8-13 12-16 16-7 8-14 18-16 24-8 13-2 4-4-2-12-13-12-12-14-11-17-11-15-8-11-3h-16l-13 4-10 7-7 7-7 15-1 4v18l2 7v9l-4 9-8 10-13 10-19 11-7 6-3 5-2 7v12l4 11 4 5 8 5 6 2h14l21-10 16-11 11-9 8-8 11-15 7-15 5-17 1-7 4 1 13 12 7 7 10 14 9 12 8 7 11 5 10 2h11l13-4 10-6 6-5 7-11 14-25 11-17 14-19 10-11 7-8 12-12h2v-2l11-9 3-1-1 5-8 16-12 27-9 24-7 22-6 25-3 16-3 24v40l4 35 6 29 7 24 8 22 11 24 12 22 13 20 10 14 8 10 12 14 3 3v2h2v2h2l6 7 2 1v2h2l2 5h-321l-21-9-16-9-13-9-14-12-8-8-11-14-9-14-9-19-6-19-5-26-1-16v-13l3-14 7-20v-13l-4-10-6-7-8-4-8-2-12 1-8 4-5 4-8 16-6 19-3 15-1 9v27l3 24 4 20 9 27 12 25 10 16 10 14 12 13 1 4h-104l-9-11-14-20-14-22-14-25-13-27-8-20-9-27-5-19-5-28-2-15-1-19v-21l2-24 4-24 7-27 8-21 12-25 12-20 10-14 16-21 11-13 9-11 12-14 11-12 9-11 11-12 7-8 11-13 9-11 13-16 14-18 14-19 20-30 12-19 7-9 6-1 6 3 5 10 9 26 12 25 10 16 11 14 10 11 2 1v2l4 2 13 10 16 9 13 6 18 5 19 3h29l25-5 16-5 18-8 11-6 17-12 12-11 11-11 10-13 10-15 9-17 11-27 7-25 5-25 3-26 2-23v-45l-3-43-9-72-1-10-1-27 1-20 4-30 6-26 9-27 9-20 10-19 10-15 8-11 13-16 7-7 5-6 8-7 13-12 16-12 21-14 21-12z" fill="#FCC350"/>
<path transform="translate(283,1314)" d="m0 0h7l3 7 7 28 18 75 6 19 6 12 11 12 10 7 14 7 14 3h93l14-4 10-6 7-6 7-10 5-11 2-17-3-18-18-75-4-17v-6h107l3 3 12 51 6 24 5 22 6 22 5 12 6 10 6 7 12 9 12 6 10 3 7 1h92l12-3 10-5 10-9 6-8 5-11 2-8v-16l-6-27-16-67-3-12v-4h108l2 1 6 25 7 29 9 38 8 31 8 16 7 9 6 5v2l5 2 10 6 15 5 7 1h92l12-3 11-6 9-8 6-9 4-8 3-12v-11l-5-25-9-37-11-47 1-4h106l3 3 7 29 12 50 10 40 7 16 10 13 14 10 13 6 7 2 8 1h92l14-4 11-7 4-2v-2h2l2-4 5-7 4-9 2-8v-19l-7-30-14-59-4-16v-3h108l3 3 5 21 6 26 12 50 7 26 7 14 9 11 2 1v2l4 2 13 8 15 5 7 1h92l12-3 11-6 10-9 8-13 4-13v-15l-8-36-12-50-5-21v-4h33l22 3 15 4 19 8 18 11 12 11 4 3v2l3 1 11 14 8 14 8 18 5 18 2 13 1 22v99l-1 1-97 1h-1366l-11 2-8 6-5 6-3 6-1 6v9l4 10 5 6 12 6 3 1 1405 1 61 1 1 1v67l-12 1h-1720l-1-1v-68l1-1 137-1 7-3 8-6 5-8 2-9-1-10-6-12-7-6-8-3-137-2-1-1v-113l2-17 5-19 8-20 10-16 9-11 5-6 8-7 13-10 18-10 19-7 13-3z" fill="#4F8DD7"/>
<path transform="translate(1214,447)" d="m0 0h8l21 5 24 8 20 9 23 12 18 12 12 9 16 13 7 4 7 2h11l12-5 4-3 13 14 11 14 12 16 10 15 3 5-6 4-4 5-4 9v14l5 13 12 24 11 27 7 19 12 39 9 37 9 46 3 10 4 6 6 5 9 4 9 1 12-3 18-8 15-8 15-10 16-13 16-16 11-14 6-5 9 1 8 9 16 24 12 19 13 23 12 23 10 21 10 26 6 18 6 24 4 25 1 16v15l-2 26-4 23-7 27-8 22-8 18-12 23-7 10-8 12-10 13-13 15-5 6h-2l-2 4-15 14-13 11-19 14-14 9-3 1h-100l-1-4 6-23 5-32 1-11v-37l-2-21-5-28-8-29-8-22-8-18-8-17-14-24-10-16-13-18-12-16-24-28-7-8-8-7-7-6-12-7-13-4-8-1h-14l-14 3-12 5-11 8-8 8-7 11-6 15-7 18-8 16-6 11-9 14-14 19-9 10-7 8-9 10-29 29-9 11-13 17-8 13-7 12-11 26-6 20-4 18-2 20v21l3 28v5l-1 1h-75l-16-10-17-13-11-9-12-11-19-19-9-11-13-17-11-17-12-22-11-24-9-28-5-21-3-18-2-23v-28l3-25 5-23 9-29 10-25 11-24 12-22 9-16 15-24 12-17 6-6h9l6 7 10 15 11 13 9 8 14 9 12 6 15 5 16 3h26l19-5 17-7 18-11 14-11 15-15 11-15 8-14 8-16 8-22 6-24 4-27 1-11v-59l-4-40-7-41-7-33-6-25v-9z" fill="#FCC350"/>
<path transform="translate(158,1746)" d="m0 0h1606l125 1 1 1 1 62v43l-1 18-4 20-6 16-8 16-9 13-9 11-9 9-15 11-14 8-15 6-18 5-15 2h-38l1-8 13-55 9-36 2-10v-16l-4-13-6-11-7-8-10-7-10-4-12-2h-85l-14 2-12 5-11 7-10 9-8 11-5 11-13 52-10 43-5 20-3 9-1 1h-109l1-6 17-71 7-30v-20l-4-12-6-10-8-9-11-7-11-4-9-1h-84l-14 2-11 4-10 6-10 9-8 9-7 14-4 13-19 80-8 32-2 1h-108l1-9 11-45 12-50 1-7v-13l-4-14-6-10-9-10-10-7-12-4-9-1h-84l-14 2-13 5-10 7-10 9-8 11-4 8-6 21-19 80-6 24-2 3h-109l1-7 21-87 3-14v-17l-4-13-6-11-6-7-13-9-7-3-13-2h-84l-14 2-11 4-12 7-11 10-9 14-5 12-9 37-12 50-8 32-2 2h-108l1-9 12-50 11-47 1-15-2-11-8-16-10-11-14-8-7-2-10-1h-84l-17 3-14 7-10 8-8 8-7 11-5 14-9 36-14 60-6 22-1 1h-15l-20-4-15-5-16-8-14-9-10-8-11-11-10-13-8-14-5-10-6-18-3-16-1-17v-108z" fill="#508DD7"/>
<path transform="translate(318,1583)" d="m0 0 1 2h79l2 11 6 10 9 6 8 3 1405 1 61 1 1 1v67l-12 1h-1720l-1-1v-68l1-1 137-1 7-3 8-6 5-8z" fill="#0054A0"/>
<path transform="translate(871,820)" d="m0 0h2l-1 5-8 16-12 27-9 24-7 22-6 25-3 16-3 24v40l4 35 6 29 7 24 8 22 11 24 12 22 13 20 10 14 8 10 12 14 3 3v2h2v2h2l6 7 2 1v2h2l2 5h-321l-21-9-16-9-13-9-14-12-8-8-11-14-9-14-9-19-6-19-5-26-1-16v-13l3-14 7-20v-13l-4-10-6-7-6-3 2-2h3l1-4 14-14 2-3h2l2-4h2v-2l8-7 10-8 11-7 4-1 1-2 6 9 8 5 6 2h14l21-10 16-11 11-9 8-8 11-15 7-15 5-17 1-7 4 1 13 12 7 7 10 14 9 12 8 7 11 5 10 2h11l13-4 10-6 6-5 7-11 14-25 11-17 14-19 10-11 7-8 12-12h2v-2l11-9z" fill="#FC830B"/>
<path transform="translate(1328,936)" d="m0 0 6 2 7 6 7 8 13 14 22 28 11 16 13 21 11 21 8 19 9 27 5 22 3 19 1 17v23l-2 19-5 25-7 24-3 7-3 1h-250l-2-1-4-14-3-20v-21l4-22 8-24 11-21 11-16 12-14 33-33 7-8 9-10 11-14 11-15 12-19 13-24 12-29 4-10z" fill="#FC830B"/>
<path transform="translate(158,1746)" d="m0 0h1606l125 1 1 1 1 62v43l-1 18-4 20-6 16-8 16-9 13-9 11-9 9-15 11-14 8-15 6-18 5-15 2h-38l1-8 4-17h1l-1 7 10-3 8-10 7-10 9-15 8-16 6-16 4-17 1-7 1-18v-110h-1630v37l1 84 1 14h-1l-2-11-1-17v-108z" fill="#0272CD"/>
<path transform="translate(1730,1314)" d="m0 0h33l22 3 15 4 19 8 18 11 12 11 4 3v2l3 1 11 14 8 14 8 18 5 18 2 13 1 22v99l-1 1-97 1h-929l-430-1v-1l1344-1 6-1h5v-96l-1-24-2-15-4-17-4-12-11-24-13-19-11-12-8-4-1 4-4-16z" fill="#0272CD"/>
<path transform="translate(1111,942)" d="m0 0 12 1 10 5 7 8 4 9 1 8-2 9-5 9-20 20-7 8-11 13-14 19-12 19-7 12-11 24-8 19-7 8-9 5-3 1h-13l-10-4-8-7-4-8-2-7 1-12 6-16 10-23 12-22 12-19 13-18 11-14 10-11 7-8 11-12 11-10 10-5z" fill="#010101"/>
<path transform="translate(989,473)" d="m0 0h14l9 4 8 7 5 9 1 4v23l-2 36-5 39-6 29-4 11-4 6-7 6-7 3h-15l-9-4-5-3-7-10-2-6v-13l7-36 3-25 2-22 1-28 2-12 6-9 7-6z" fill="#010101"/>
<path transform="translate(1566,978)" d="m0 0h13l10 4 5 4 7 11 9 24 8 25 6 24 7 36v13l-4 10-7 8-8 5-12 2-9-2-9-5-7-8-3-7-8-41-7-26-14-42v-12l4-10 5-5 6-5z" fill="#010101"/>
<path transform="translate(1321,1876)" d="m0 0h24l40 1-2 12-13 55-10 40-2 4h-75l-1-4 9-36 15-63 3-6 3-2z" fill="#0054A0"/>
<path transform="translate(702,1876)" d="m0 0h23l41 1-2 10-18 77-6 23-2 1h-74l-1-5 10-40 13-55 4-9 2-2z" fill="#0054A0"/>
<path transform="translate(394,1876)" d="m0 0h61l1 5-22 93-3 12-2 2h-75l-1-4 5-19 17-71 4-13 4-4z" fill="#0054A0"/>
<path transform="translate(1592,1314)" d="m0 0h75l2 2 17 72 8 31 1 6-1 1h-70l-6-4-4-11-10-41-12-50z" fill="#0054A0"/>
<path transform="translate(1014,1876)" d="m0 0h61l1 3-8 32-15 63-3 13-3 1h-74l-1-4 3-9 16-67 5-21 4-9 2-1z" fill="#0054A0"/>
<path transform="translate(1632,1876)" d="m0 0h18l45 1-2 10-16 67-8 33-2 1h-75l1-9 12-49 8-34 4-14 4-5z" fill="#0054A0"/>
<path transform="translate(353,1314)" d="m0 0h74l3 1 4 15 11 48 11 43-1 5h-68l-5-2-4-5-7-26-16-68-2-7z" fill="#0054A0"/>
<path transform="translate(972,1314)" d="m0 0h75l3 3 19 80 6 23v6h-69l-5-2-4-6-7-26-14-59-4-15z" fill="#0054A0"/>
<path transform="translate(1327,614)" d="m0 0h14l12 6 6 7 9 15 15 29 12 29 8 23 1 10-3 10-6 9-9 6-5 2-8 1-12-3-10-7-5-8-11-30-12-27-11-20-7-14-1-4v-10l4-11 5-6 10-6z" fill="#010101"/>
<path transform="translate(1282,1315)" d="m0 0h77l15 63 11 45-1 3h-68l-6-2-4-8-6-22-13-56-5-20z" fill="#0054A0"/>
<path transform="translate(736,1314)" d="m0 0 4 2 14 59 12 48-1 3h-69l-6-3-4-9-8-32-12-51-3-13v-3z" fill="#0054A0"/>
<path transform="translate(980,265)" d="m0 0h11l9 3 10 9 7 16 8 21 11 24 8 17 1 3v11l-5 12-8 8-9 4-9 1-12-3-8-6-6-7-12-24-11-26-7-19-3-12 1-10 6-12 7-6 6-3z" fill="#010101"/>
<path transform="translate(158,1746)" d="m0 0h1606v1l-1461 1h-144v37l1 84 1 14h-1l-2-11-1-17v-108z" fill="#0057A5"/>
<path transform="translate(1886,1416)" d="m0 0h1l3 18 1 22v99l-1 1-97 1h-929l-430-1v-1h1454l-1-126z" fill="#0271CC"/>
<path transform="translate(1886,1416)" d="m0 0h1l3 18 1 22v99l-1 1-97 1h-27v-1l26-1h96l-1-126z" fill="#0054A0"/>
<path transform="translate(1889,1748)" d="m0 0h1l1 62v43l-1 18-4 20-2 6-1-3 3-12 1-8 1-106z" fill="#0054A0"/>
<path transform="translate(1420,1314)" d="m0 0h108v1l-27 1h-79l-1 4z" fill="#005CAC"/>
<path transform="translate(1730,1314)" d="m0 0h33l22 3 5 1v1l-11-1-9-1h-38l-2 1z" fill="#0054A0"/>
</svg>
